<?xml version="1.0" encoding="iso-8859-1"?>
<!-- Generator: Adobe Illustrator 19.0.0, SVG Export Plug-In . SVG Version: 6.00 Build 0)  -->
<svg version="1.1" id="Layer_1" xmlns="http://www.w3.org/2000/svg" xmlns:xlink="http://www.w3.org/1999/xlink" x="0px" y="0px"
	 viewBox="0 0 504.123 504.123" style="enable-background:new 0 0 504.123 504.123;" xml:space="preserve">
<circle style="fill:#FF7058;" cx="252.062" cy="252.062" r="252.062"/>
<path style="fill:#FFD05B;" d="M387.938,359.582H116.185c-11.422,0-20.874-9.452-20.874-20.874V165.022
	c0-11.422,9.452-20.874,20.874-20.874h272.148c11.422,0,20.874,9.452,20.874,20.874v173.686
	C408.812,350.523,399.36,359.582,387.938,359.582z"/>
<g>
	<rect x="95.311" y="179.2" style="fill:#324A5E;" width="313.502" height="47.655"/>
	<rect x="129.575" y="257.969" style="fill:#324A5E;" width="89.403" height="16.935"/>
</g>
<rect x="317.046" y="271.754" style="fill:#FFD05B;" width="65.772" height="65.772"/>
<g>
	<polygon style="fill:#F9B54C;" points="352.492,278.449 352.492,296.96 336.345,296.96 336.345,271.754 332.406,271.754 
		332.406,305.625 317.046,305.625 317.046,309.563 336.345,309.563 336.345,300.898 356.431,300.898 356.431,282.388 
		382.818,282.388 382.818,278.449 	"/>
	<polygon style="fill:#F9B54C;" points="361.945,315.471 346.191,315.471 346.191,307.594 342.252,307.594 342.252,322.56 
		317.046,322.56 317.046,326.498 346.191,326.498 346.191,319.409 359.975,319.409 359.975,337.132 363.914,337.132 
		363.914,319.409 382.818,319.409 382.818,315.471 363.914,315.471 	"/>
</g>
<polygon style="fill:#324A5E;" points="387.151,240.64 387.151,263.483 403.692,252.062 "/>
<g>
	<rect x="116.185" y="325.711" style="fill:#FFFFFF;" width="25.994" height="12.603"/>
	<rect x="116.185" y="294.991" style="fill:#FFFFFF;" width="73.649" height="13.391"/>
	<rect x="163.84" y="325.711" style="fill:#FFFFFF;" width="25.994" height="12.603"/>
</g>
<g>
	<rect x="211.495" y="329.649" style="fill:#84DBFF;" width="25.994" height="7.877"/>
	<rect x="259.151" y="329.649" style="fill:#84DBFF;" width="25.994" height="7.877"/>
</g>
<path style="fill:#4CDBC4;" d="M272.148,424.172L79.951,231.975c-8.271-8.271-8.271-21.268,0-29.145l122.88-122.88
	c8.271-8.271,21.268-8.271,29.145,0l192.197,192.197c8.271,8.271,8.271,21.268,0,29.145l-122.88,122.88
	C293.415,432.443,280.418,432.443,272.148,424.172z"/>
<rect x="130.051" y="193.334" transform="matrix(-0.7071 -0.7071 0.7071 -0.7071 336.0419 573.5159)" style="fill:#324A5E;" width="313.499" height="47.655"/>
<rect x="130.705" y="194.097" transform="matrix(-0.7071 -0.7071 0.7071 -0.7071 167.2956 474.426)" style="fill:#F1543F;" width="102.399" height="16.935"/>
<rect x="251.418" y="325.824" transform="matrix(-0.7071 -0.7071 0.7071 -0.7071 231.691 813.3889)" style="fill:#FFFFFF;" width="65.772" height="65.772"/>
<g>
	<polygon style="fill:#ACB3BA;" points="304.443,341.858 291.446,354.855 280.025,343.434 297.748,325.317 294.991,322.56 
		270.966,346.978 260.332,335.951 257.575,338.708 270.966,352.492 277.268,346.191 291.446,360.369 304.443,347.372 
		322.954,365.883 325.711,363.126 	"/>
	<polygon style="fill:#ACB3BA;" points="284.751,374.942 273.723,363.52 279.237,358.006 276.48,355.249 265.846,365.883 
		248.123,348.16 245.366,350.917 265.846,371.397 270.966,366.277 280.812,376.123 268.209,388.726 270.966,391.483 283.569,378.88 
		296.96,392.271 299.717,389.514 286.326,376.123 	"/>
</g>
<polygon style="fill:#FFFFFF;" points="355.643,339.495 339.495,355.643 359.188,359.188 "/>
<g>
	
		<rect x="96.331" y="214.883" transform="matrix(0.7071 0.7071 -0.7071 0.7071 188.4223 -12.5228)" style="fill:#324A5E;" width="25.994" height="12.603"/>
	
		<rect x="109.695" y="212.122" transform="matrix(0.7071 0.7071 -0.7071 0.7071 196.9454 -39.8033)" style="fill:#324A5E;" width="73.649" height="11.421"/>
	
		<rect x="130.311" y="248.63" transform="matrix(0.7071 0.7071 -0.7071 0.7071 222.2375 -26.6659)" style="fill:#324A5E;" width="25.994" height="12.603"/>
	
		<rect x="163.986" y="282.036" transform="matrix(-0.7071 -0.7071 0.7071 -0.7071 98.2433 617.3688)" style="fill:#324A5E;" width="25.994" height="12.603"/>
	
		<rect x="204.06" y="309.345" transform="matrix(-0.7071 0.7071 -0.7071 -0.7071 587.0399 401.5241)" style="fill:#324A5E;" width="12.603" height="25.994"/>
</g>
<g>
</g>
<g>
</g>
<g>
</g>
<g>
</g>
<g>
</g>
<g>
</g>
<g>
</g>
<g>
</g>
<g>
</g>
<g>
</g>
<g>
</g>
<g>
</g>
<g>
</g>
<g>
</g>
<g>
</g>
</svg>
