<?xml version="1.0" encoding="iso-8859-1"?>
<!-- Generator: Adobe Illustrator 19.0.0, SVG Export Plug-In . SVG Version: 6.00 Build 0)  -->
<svg version="1.1" id="Layer_1" xmlns="http://www.w3.org/2000/svg" xmlns:xlink="http://www.w3.org/1999/xlink" x="0px" y="0px"
	 viewBox="0 0 505 505" style="enable-background:new 0 0 505 505;" xml:space="preserve">
<circle style="fill:#FD8469;" cx="252.5" cy="252.5" r="252.5"/>
<path style="fill:#FFFFFF;" d="M407.9,295.4H142.6c-1.7,0-3.1-1.4-3.1-3.1v-179c0-1.7,1.4-3.1,3.1-3.1h265.2c1.7,0,3.1,1.4,3.1,3.1
	v179C410.9,294,409.6,295.4,407.9,295.4z"/>
<rect x="139.6" y="137.9" style="fill:#324A5E;" width="271.3" height="42.9"/>
<path style="fill:#2B3B4E;" d="M362.4,394.7H97.1c-1.7,0-3.1-1.4-3.1-3.1v-179c0-1.7,1.4-3.1,3.1-3.1h265.2c1.7,0,3.1,1.4,3.1,3.1
	v179C365.4,393.4,364.1,394.7,362.4,394.7z"/>
<g>
	<path style="fill:#324A5E;" d="M142.7,301.7c-2.6,4.2-1.3,9.6,0.2,14.3c0.4,1.2,0.8,2.4,1.5,3.4c1.1,1.3,2.7,2,4.3,2.6
		c5.1,1.8,10.7,2.4,16.1,1.9c6.6-0.6,14.8-2.3,18.5,3.2c1.1,1.7,1.5,3.7,2.6,5.4c3.8,6.5,13.2,5.6,20.3,8c1.1,0.4,2.2,0.9,2.9,1.8
		c0.6,0.8,0.8,2,1,3c1.5,11.9-4.5,23.4-11.9,32.9c-1.9,2.4-3.9,4.9-4.8,7.8c-0.7,2.3-0.6,4.8-1.2,7.2c-0.1,0.5-0.3,1-0.5,1.5h-27.4
		c1.2-5.1,2.2-10.2,3.1-15.4c0.8-4.8,0.9-10.7-3.1-13.3c-1.4-0.9-3-1.3-4.4-2.1c-2.8-1.7-3.9-5.1-4.8-8.2c-1.9-6-3.8-12.3-3-18.6
		c0.5-3.8,1.5-8.7-1.7-10.8c-1.1-0.7-2.5-0.9-3.7-1.4c-2.6-1.2-4-3.9-6-5.9c-4.9-4.9-13-4.7-18.7-8.6c-6-4.2-8-12.1-11.5-18.6
		c-4.4-8.3-11.9-15.1-13.9-24.2c-0.9-3.8-0.7-8-2.3-11.5c0-0.1-0.1-0.2-0.1-0.2v-34c0-6.7,5.4-12.1,12.1-12.1h115.5
		c-0.8,3.3-2.8,6.3-4.8,9.2c-5.3,7.6-10.8,15.4-18.5,20.5c-3.8,2.6-8.5,5-9.2,9.5c-0.3,1.7,0,3.4-0.4,5c-1.4,4.9-7.9,5.5-12.7,7.1
		c-7.5,2.5-12.7,9.5-16.5,16.4c-3.8,7-7,14.5-12.7,20.1C145.3,298.8,143.7,300.1,142.7,301.7z"/>
	<path style="fill:#324A5E;" d="M365.4,221.7v86.9c-3.6,1.7-6.5,4.9-7.4,8.8c-0.7,3-0.7,6.8-3.5,8.1c-2.8,1.3-6-1.2-7.2-4.1
		c-1.2-2.8-1.4-6.1-3.1-8.7c-2.3-3.4-6.8-4.9-8.9-8.6c-1-1.8-1.3-4-2.1-5.9c-3.1-6.6-12.1-7.6-19.2-5.8c-1.4,3,0.2,7,3.2,8.3
		c1.5,0.6,3.2,0.6,4.7,1.1c3.4,1,6,4.4,6.1,8c0.2,3.6-2.3,7.1-5.6,8.4c-5.9,2.2-12-2.4-16.7-6.6c-1-0.9-2-1.8-2.5-3.1
		c-0.5-1.3-0.4-2.8-0.8-4.1c-0.8-2.9-4.4-4.8-7.3-3.8c3.6,6.1,7.2,12.2,10.8,18.3c0.9,1.5,1.8,3.1,3.2,4.3c2.9,2.6,7.5,3.1,10.3,6
		c-10.6,21.8-21.3,43.6-31.9,65.5h-13.8c0.7-9.2-1.2-18.5-5.8-26.4c-1.8-3.1-4-6-5.2-9.2c-3.2-8.6,0.2-18.2,0.1-27.4
		c-4.2,2.2-9.5,1.8-13.9-0.1s-8.1-5-11.8-8.1c-2.3-2-4.7-4.1-5.7-6.9c-2.8-8,6.7-15.4,6.7-23.9c0-1.2-0.2-2.4,0.4-3.5
		c1.5-2.6,5.5-0.9,8.5-0.9c5.7-0.1,9.7-7.5,15.2-6.4c1.7,0.3,3.1,1.4,4.5,2.4c10,7.2,22.3,11.1,34.7,10.8c0.8-1.5-0.3-3.6-1.9-4
		c-0.8-4.6-1.9-9.1-3.5-13.5c-0.9-2.7-2.2-5.6-4.7-7c-2-1.2-4.4-1.2-6.7-1.3c-4.8,0-9.6-0.1-14.4-0.2c-3.2,0-6.5-0.1-9.3,1.3
		c-3.7,1.8-5.9,5.5-8.6,8.6c-2.7,3.1-6.9,5.7-10.7,4.2c-5-2-5-9.3-2.4-13.9c0.6-1.2,1.4-2.3,2.5-3c1.5-1,3.4-1.2,5.2-1.7
		c8.1-2.3,13.1-10.2,16.4-18c3.3-7.7,6-16.1,12.2-21.7c1.9-1.7,4.2-3.2,5.6-5.4c1.9-2.9,1.8-6.7,0.3-9.9h71.8
		C360,209.6,365.4,215,365.4,221.7z"/>
</g>
<path style="fill:#FFD05B;" d="M172.2,303.8h-49.1c-0.8,0-1.5-0.7-1.5-1.5v-37.2c0-0.8,0.7-1.5,1.5-1.5h49.1c0.8,0,1.5,0.7,1.5,1.5
	v37.2C173.6,303.1,173,303.8,172.2,303.8z"/>
<polygon style="fill:#F9B54C;" points="173.6,276.4 173.6,274.5 150.5,274.5 150.5,263.6 148.6,263.6 148.6,285.2 121.6,285.2 
	121.6,287.1 131.7,287.1 131.7,303.8 133.5,303.8 133.5,287.1 144.4,287.1 144.4,303.8 146.2,303.8 146.2,287.1 150.5,287.1 
	150.5,287 156.7,287 156.7,303.8 158.6,303.8 158.6,287 173.6,287 173.6,285.2 150.5,285.2 150.5,276.4 "/>
<g>
	<path style="fill:#ACB3BA;" d="M121.6,351h5.2v12.8H124v-10.4h-2.4V351z"/>
	<path style="fill:#ACB3BA;" d="M129.8,353.4V351h7.9v2l-2.6,3c1,0.2,1.8,0.6,2.4,1.3c0.6,0.7,0.8,1.5,0.8,2.4
		c0,1.3-0.5,2.4-1.4,3.2c-0.9,0.8-2.1,1.1-3.5,1.1s-2.9-0.5-4.3-1.5l1.2-2.3c1.2,0.9,2.3,1.3,3.3,1.3c0.6,0,1-0.1,1.4-0.4
		s0.6-0.7,0.6-1.2s-0.2-1-0.6-1.3c-0.4-0.3-1-0.5-1.8-0.5c-0.4,0-1,0.1-1.7,0.3v-2.1l2.5-2.9H129.8z"/>
	<path style="fill:#ACB3BA;" d="M145.7,356c0.3-0.5,0.5-0.9,0.5-1.3s-0.1-0.8-0.4-1.1c-0.3-0.3-0.6-0.4-1.1-0.4
		c-0.8,0-1.6,0.6-2.3,1.7l-2.3-1.4c0.6-0.9,1.3-1.6,2-2.1s1.6-0.7,2.7-0.7c1.1,0,2.1,0.4,2.9,1.1c0.8,0.7,1.3,1.7,1.3,2.9
		c0,0.7-0.2,1.3-0.5,1.9s-1,1.4-1.9,2.3l-2.3,2.4h5.1v2.6h-9.1v-2.1l3.8-3.9C144.9,357.1,145.4,356.4,145.7,356z"/>
	<path style="fill:#ACB3BA;" d="M156.9,356c0.3-0.5,0.5-0.9,0.5-1.3s-0.1-0.8-0.4-1.1c-0.3-0.3-0.6-0.4-1.1-0.4
		c-0.8,0-1.6,0.6-2.3,1.7l-2.3-1.4c0.6-0.9,1.3-1.6,2-2.1s1.6-0.7,2.7-0.7c1.1,0,2.1,0.4,2.9,1.1c0.8,0.7,1.3,1.7,1.3,2.9
		c0,0.7-0.2,1.3-0.5,1.9s-1,1.4-1.9,2.3l-2.3,2.4h5.1v2.6h-9.1v-2.1l3.8-3.9C156,357.1,156.5,356.4,156.9,356z"/>
	<path style="fill:#ACB3BA;" d="M181.5,351h5.2v12.8h-2.8v-10.4h-2.4V351z"/>
	<path style="fill:#ACB3BA;" d="M194.8,353.1c-0.8,0-1.4,0.3-1.8,0.8c-0.4,0.5-0.7,1.3-0.8,2.2c0.8-0.5,1.6-0.8,2.5-0.8
		c1.2,0,2.2,0.4,3,1.2c0.8,0.8,1.2,1.8,1.2,3.1c0,1.3-0.4,2.3-1.3,3.1s-2,1.2-3.3,1.2c-0.9,0-1.7-0.2-2.4-0.5s-1.2-0.8-1.6-1.5
		c-0.7-1.2-1.1-2.7-1.1-4.6c0-1.2,0.1-2.2,0.4-3.1c0.3-0.9,0.7-1.6,1.2-2.1c1-1,2.2-1.5,3.6-1.5c0.6,0,1.2,0.1,1.7,0.3
		c0.5,0.2,1,0.4,1.3,0.5c0.3,0.2,0.6,0.4,1,0.7l-1.4,2c-0.1-0.1-0.2-0.2-0.3-0.3c-0.1-0.1-0.4-0.3-0.8-0.5S195.2,353.1,194.8,353.1z
		 M194.4,357.8c-0.6,0-1,0.2-1.4,0.5s-0.6,0.8-0.6,1.3s0.2,1,0.6,1.4c0.4,0.4,0.8,0.6,1.4,0.6c0.6,0,1-0.2,1.4-0.5s0.6-0.8,0.6-1.3
		s-0.2-1-0.5-1.4C195.5,358,195,357.8,194.4,357.8z"/>
	<path style="fill:#ACB3BA;" d="M209.2,351v2.5h-5.1v2.1c0.4-0.1,0.8-0.2,1.3-0.2c1.2,0,2.3,0.4,3.2,1.1s1.3,1.8,1.3,3
		c0,1.3-0.5,2.3-1.4,3.1c-0.9,0.8-2.1,1.2-3.4,1.2c-1.7,0-3.2-0.6-4.4-1.9l1.5-2.1c0.1,0.1,0.3,0.2,0.4,0.4c0.2,0.2,0.5,0.4,1,0.6
		c0.5,0.3,1,0.4,1.5,0.4s0.9-0.1,1.3-0.4c0.4-0.3,0.6-0.7,0.6-1.3c0-0.6-0.2-1-0.6-1.3c-0.4-0.3-0.9-0.5-1.6-0.5
		c-0.6,0-1.4,0.2-2.3,0.7l-1.2-1.3v-6.3h7.9V351z"/>
	<path style="fill:#ACB3BA;" d="M211.4,351h5.2v12.8h-2.8v-10.4h-2.4V351z"/>
	<path style="fill:#ACB3BA;" d="M244.1,353.1c-0.8,0-1.4,0.3-1.8,0.8c-0.4,0.5-0.7,1.3-0.8,2.2c0.8-0.5,1.6-0.8,2.5-0.8
		c1.2,0,2.2,0.4,3,1.2c0.8,0.8,1.2,1.8,1.2,3.1c0,1.3-0.4,2.3-1.3,3.1s-2,1.2-3.3,1.2c-0.9,0-1.7-0.2-2.4-0.5s-1.2-0.8-1.6-1.5
		c-0.7-1.2-1.1-2.7-1.1-4.6c0-1.2,0.1-2.2,0.4-3.1c0.3-0.9,0.7-1.6,1.2-2.1c1-1,2.2-1.5,3.6-1.5c0.6,0,1.2,0.1,1.7,0.3
		c0.5,0.2,1,0.4,1.3,0.5c0.3,0.2,0.6,0.4,1,0.7l-1.4,2c-0.1-0.1-0.2-0.2-0.3-0.3c-0.1-0.1-0.4-0.3-0.8-0.5
		C244.9,353.2,244.5,353.1,244.1,353.1z M243.7,357.8c-0.6,0-1,0.2-1.4,0.5s-0.6,0.8-0.6,1.3s0.2,1,0.6,1.4c0.4,0.4,0.8,0.6,1.4,0.6
		c0.6,0,1-0.2,1.4-0.5s0.6-0.8,0.6-1.3s-0.2-1-0.5-1.4C244.8,358,244.3,357.8,243.7,357.8z"/>
	<path style="fill:#ACB3BA;" d="M258.5,351v2.5h-5.1v2.1c0.4-0.1,0.8-0.2,1.3-0.2c1.2,0,2.3,0.4,3.2,1.1c0.9,0.7,1.3,1.8,1.3,3
		c0,1.3-0.5,2.3-1.4,3.1c-0.9,0.8-2.1,1.2-3.4,1.2c-1.7,0-3.2-0.6-4.4-1.9l1.5-2.1c0.1,0.1,0.3,0.2,0.4,0.4c0.2,0.2,0.5,0.4,1,0.6
		c0.5,0.3,1,0.4,1.5,0.4s0.9-0.1,1.3-0.4s0.6-0.7,0.6-1.3c0-0.6-0.2-1-0.6-1.3s-0.9-0.5-1.6-0.5c-0.6,0-1.4,0.2-2.3,0.7l-1.2-1.3
		v-6.3h7.9V351z"/>
	<path style="fill:#ACB3BA;" d="M260.7,351h5.2v12.8h-2.8v-10.4h-2.4L260.7,351L260.7,351z"/>
	<path style="fill:#ACB3BA;" d="M274,353.1c-0.8,0-1.4,0.3-1.8,0.8s-0.7,1.3-0.8,2.2c0.8-0.5,1.6-0.8,2.5-0.8c1.2,0,2.2,0.4,3,1.2
		c0.8,0.8,1.2,1.8,1.2,3.1c0,1.3-0.4,2.3-1.3,3.1c-0.9,0.8-2,1.2-3.3,1.2c-0.9,0-1.7-0.2-2.4-0.5c-0.7-0.3-1.2-0.8-1.6-1.5
		c-0.7-1.2-1.1-2.7-1.1-4.6c0-1.2,0.1-2.2,0.4-3.1s0.7-1.6,1.2-2.1c1-1,2.2-1.5,3.6-1.5c0.6,0,1.2,0.1,1.7,0.3
		c0.5,0.2,1,0.4,1.3,0.5c0.3,0.2,0.6,0.4,1,0.7l-1.4,2c-0.1-0.1-0.2-0.2-0.3-0.3c-0.1-0.1-0.4-0.3-0.8-0.5
		C274.8,353.2,274.4,353.1,274,353.1z M273.7,357.8c-0.6,0-1,0.2-1.4,0.5s-0.6,0.8-0.6,1.3s0.2,1,0.6,1.4s0.8,0.6,1.4,0.6
		s1-0.2,1.4-0.5s0.6-0.8,0.6-1.3s-0.2-1-0.5-1.4C274.7,358,274.2,357.8,273.7,357.8z"/>
	<path style="fill:#ACB3BA;" d="M299.1,351h5.2v12.8h-2.8v-10.4h-2.4V351z"/>
	<path style="fill:#ACB3BA;" d="M312.4,353.1c-0.8,0-1.4,0.3-1.8,0.8s-0.7,1.3-0.8,2.2c0.8-0.5,1.6-0.8,2.5-0.8c1.2,0,2.2,0.4,3,1.2
		c0.8,0.8,1.2,1.8,1.2,3.1c0,1.3-0.4,2.3-1.3,3.1c-0.9,0.8-2,1.2-3.3,1.2c-0.9,0-1.7-0.2-2.4-0.5c-0.7-0.3-1.2-0.8-1.6-1.5
		c-0.7-1.2-1.1-2.7-1.1-4.6c0-1.2,0.1-2.2,0.4-3.1s0.7-1.6,1.2-2.1c1-1,2.2-1.5,3.6-1.5c0.6,0,1.2,0.1,1.7,0.3
		c0.5,0.2,1,0.4,1.3,0.5c0.3,0.2,0.6,0.4,1,0.7l-1.4,2c-0.1-0.1-0.2-0.2-0.3-0.3c-0.1-0.1-0.4-0.3-0.8-0.5S312.8,353.1,312.4,353.1z
		 M312,357.8c-0.6,0-1,0.2-1.4,0.5s-0.6,0.8-0.6,1.3s0.2,1,0.6,1.4s0.8,0.6,1.4,0.6s1-0.2,1.4-0.5s0.6-0.8,0.6-1.3s-0.2-1-0.5-1.4
		C313.1,358,312.6,357.8,312,357.8z"/>
	<path style="fill:#ACB3BA;" d="M326.8,351v2.5h-5.1v2.1c0.4-0.1,0.8-0.2,1.3-0.2c1.2,0,2.3,0.4,3.2,1.1c0.9,0.7,1.3,1.8,1.3,3
		c0,1.3-0.5,2.3-1.4,3.1c-0.9,0.8-2.1,1.2-3.4,1.2c-1.7,0-3.2-0.6-4.4-1.9l1.5-2.1c0.1,0.1,0.3,0.2,0.4,0.4c0.2,0.2,0.5,0.4,1,0.6
		c0.5,0.3,1,0.4,1.5,0.4s0.9-0.1,1.3-0.4s0.6-0.7,0.6-1.3c0-0.6-0.2-1-0.6-1.3s-0.9-0.5-1.6-0.5c-0.6,0-1.4,0.2-2.3,0.7l-1.2-1.3
		v-6.3h7.9V351z"/>
	<path style="fill:#ACB3BA;" d="M334.3,358.3v-2.2h2.8v2.2h1.5v2.5h-1.5v3.1h-2.8v-3.1h-5.2v-2.2l4.6-7.6h3.1l-4.4,7.3L334.3,358.3
		L334.3,358.3z"/>
	<path style="fill:#ACB3BA;" d="M231.5,266.8c2.9,0,5.3-1.2,7.1-3.5l3.8,3.9c-3,3.4-6.6,5.1-10.7,5.1c-4.1,0-7.5-1.3-10.1-3.9
		s-4-5.8-4-9.8s1.4-7.2,4-9.9c2.7-2.6,6-4,9.9-4c4.4,0,8,1.7,10.9,5l-3.7,4.2c-1.9-2.3-4.2-3.5-7-3.5c-2.2,0-4.1,0.7-5.7,2.2
		c-1.6,1.5-2.4,3.4-2.4,5.9s0.7,4.5,2.2,5.9C227.6,266.1,229.4,266.8,231.5,266.8z"/>
	<path style="fill:#ACB3BA;" d="M265.9,272.1l-2.5-5.7h-11.1l-2.5,5.7h-6.3l11.5-26.6h5.7l11.5,26.6H265.9z M257.8,253.4l-3.3,7.7
		h6.7L257.8,253.4z"/>
	<path style="fill:#ACB3BA;" d="M296.8,254.3c0,4.3-1.7,7-5.1,8.2l6.7,9.5h-7.3l-5.9-8.5h-4.1v8.5h-5.9v-26.5h10.1
		c4.1,0,7.1,0.7,8.8,2.1C295.9,249,296.8,251.2,296.8,254.3z M289.7,257.5c0.7-0.7,1.1-1.7,1.1-3.1s-0.4-2.4-1.1-2.9
		c-0.8-0.5-2.1-0.8-4-0.8h-4.4v7.9h4.3C287.5,258.5,288.9,258.1,289.7,257.5z"/>
	<path style="fill:#ACB3BA;" d="M323.2,249c2.5,2.3,3.8,5.5,3.8,9.7c0,4.1-1.2,7.4-3.7,9.8s-6.2,3.6-11.3,3.6h-9.1v-26.6h9.4
		C317,245.5,320.7,246.7,323.2,249z M318.8,264.8c1.5-1.4,2.2-3.4,2.2-6s-0.7-4.6-2.2-6s-3.7-2.1-6.7-2.1h-3.3v16.2h3.8
		C315.3,266.8,317.4,266.2,318.8,264.8z"/>
</g>
<g>
</g>
<g>
</g>
<g>
</g>
<g>
</g>
<g>
</g>
<g>
</g>
<g>
</g>
<g>
</g>
<g>
</g>
<g>
</g>
<g>
</g>
<g>
</g>
<g>
</g>
<g>
</g>
<g>
</g>
</svg>
